<?xml version="1.0" encoding="utf-8"?><svg xmlns="http://www.w3.org/2000/svg" xmlns:xlink="http://www.w3.org/1999/xlink"><symbol viewBox="0 0 32 32" id="fb" xmlns="http://www.w3.org/2000/svg"><path d="M32 30a2 2 0 0 1-2 2H2a2 2 0 0 1-2-2V2a2 2 0 0 1 2-2h28a2 2 0 0 1 2 2v28z" fill="#3B5998"/><path d="M22 32V20h4l1-5h-5v-2c0-2 1.002-3 3-3h2V5h-4c-3.675 0-6 2.881-6 7v3h-4v5h4v12h5z" fill="#FFF"/></symbol><symbol viewBox="0 0 1792 1792" id="file" xmlns="http://www.w3.org/2000/svg"><path d="M1152 512V40q22 14 36 28l408 408q14 14 28 36h-472zm-128 32q0 40 28 68t68 28h544v1056q0 40-28 68t-68 28H224q-40 0-68-28t-28-68V96q0-40 28-68t68-28h800v544z"/></symbol><symbol viewBox="0 0 512 512" id="gh" xmlns="http://www.w3.org/2000/svg"><path d="M512 432c0 44.182-35.816 80-80 80H80c-44.183 0-80-35.818-80-80V80C0 35.817 35.818 0 80 0h352c44.184 0 80 35.817 80 80v352z" fill="#181616"/><path d="M362.43 154.018l-.742-.743c-27.116-26.927-64.461-43.567-105.691-43.567C173.165 109.707 106 176.863 106 259.711c0 41.254 16.659 78.613 43.616 105.726l.629.63L296.18 512H432c44.184 0 80-35.818 80-80V303.588l-149.57-149.57z" fill="#0C0C0C"/><path clip-rule="evenodd" d="M255.996 109.707C173.165 109.707 106 176.863 106 259.711c0 66.266 42.976 122.487 102.587 142.324 7.5 1.376 10.233-3.255 10.233-7.229 0-3.561-.125-12.994-.198-25.512-41.725 9.064-50.529-20.106-50.529-20.106-6.826-17.329-16.654-21.942-16.654-21.942-13.624-9.308 1.034-9.119 1.034-9.119 15.054 1.062 22.967 15.458 22.967 15.458 13.381 22.923 35.107 16.304 43.659 12.464 1.358-9.694 5.243-16.304 9.523-20.054-33.309-3.785-68.325-16.653-68.325-74.134 0-16.375 5.845-29.766 15.44-40.25-1.538-3.795-6.69-19.046 1.466-39.693 0 0 12.599-4.038 41.258 15.377 11.96-3.327 24.793-5 37.553-5.054 12.732.054 25.565 1.727 37.554 5.054 28.631-19.415 41.202-15.377 41.202-15.377 8.184 20.647 3.04 35.898 1.493 39.693 9.614 10.485 15.413 23.875 15.413 40.25 0 57.624-35.071 70.304-68.486 74.018 5.395 4.632 10.188 13.785 10.188 27.778 0 20.054-.189 36.23-.189 41.149 0 4.011 2.708 8.678 10.323 7.212C363.062 382.144 406 325.959 406 259.711c0-82.848-67.165-150.004-150.004-150.004z" fill="#FFF" fill-rule="evenodd"/></symbol><symbol viewBox="0 0 32 32" id="linked" xmlns="http://www.w3.org/2000/svg"><path d="M32 30a2 2 0 0 1-2 2H2a2 2 0 0 1-2-2V2a2 2 0 0 1 2-2h28a2 2 0 0 1 2 2v28z" fill="#007BB5"/><g fill="#FFF"><path d="M7 11h4v14H7zm13.499 0c-2.791 0-3.271 1.018-3.499 2v-2h-4v14h4v-8c0-1.297.703-2 2-2 1.266 0 2 .688 2 2v8h4v-7c0-4-.521-7-4.501-7z"/><circle cx="9" cy="8" r="2"/></g></symbol><symbol viewBox="0 0 50 50" id="twi" xmlns="http://www.w3.org/2000/svg"><path d="M45 1H5C2.8 1 1 2.8 1 5v40c0 2.2 1.8 4 4 4h40c2.2 0 4-1.8 4-4V5c0-2.2-1.8-4-4-4z" fill="#2CA7E0"/><path d="M40 16.2c-1.1.5-2.8 1.1-4 1.3 1.3-.8 2.5-2.6 3-4-1 .6-2.1 1.4-3.2 1.8l-.8-.8c-1.1-1.2-2.2-2-4-2-3.4 0-6 2.6-6 6 0 .4 0 .7.1 1H25c-6 0-10-1.3-13-5-.5.9-1 1.9-1 3 0 2.1 1.3 3.9 3 5-1 0-2.2-.5-3-1 0 3 4.2 6.4 7 7-1 1-4.6.1-5 0 .8 2.4 3.3 3.9 6 4-2.1 1.6-4.6 2.5-7.5 2.5-.5 0-1 0-1.5-.1 2.7 1.7 6.5 2.6 10 2.6 11.3 0 17-8.9 17-17v-1c1.2-.9 2.2-2.1 3-3.3z" fill="#FFF"/></symbol><symbol viewBox="0 0 50 50" id="vk" xmlns="http://www.w3.org/2000/svg"><path d="M45 1H5C2.8 1 1 2.8 1 5v40c0 2.2 1.8 4 4 4h40c2.2 0 4-1.8 4-4V5c0-2.2-1.8-4-4-4z" fill="#54769B"/><path d="M26 34c1 0 1-1.4 1-2 0-1 1-2 2-2s2.7 1.7 4 3c1 1 1 1 2 1h3s2-.1 2-2c0-.6-.7-1.7-3-4-2-2-3-1 0-5 1.8-2.5 3.2-4.7 3-5.3-.2-.6-5.3-1.6-6-.7-2 3-2.4 3.7-3 5-1 2-1.1 3-2 3-.9 0-1-1.9-1-3 0-3.3.5-5.6-1-6h-3c-1.6 0-3 1-3 1s-1.2 1-1 1c.3 0 2-.4 2 1v2s0 4-1 4-3-4-5-7c-.8-1.2-1-1-2-1h-3c-1 0-1.1.6-1 1 2 5 3.4 8.1 7.2 12.1 3.5 3.6 5.8 3.8 7.8 3.9h1z" fill="#FFF"/></symbol></svg>