<svg xmlns="http://www.w3.org/2000/svg" viewBox="0 0 95.098 95.098">
  <path d="M75.593 32.792c-.299-.181-.671-.193-.981-.031L48.174 46.599c-.371.193-.87.193-1.237.001L20.485 32.76c-.31-.162-.683-.15-.981.031-.299.181-.482.505-.482.855v5.032c0 .365.199.702.52.877l27.532 15.071c.15.081.315.123.48.123s.331-.042.479-.124l27.521-15.07c.32-.175.52-.512.52-.877v-5.031c.002-.35-.181-.674-.481-.855z" fill="#dae7dd"/>
  <path d="M92.961 0H2.137C.957 0 0 .957 0 2.137v90.824c0 1.18.957 2.137 2.137 2.137h90.824c1.18 0 2.137-.957 2.137-2.137V2.137C95.098.957 94.141 0 92.961 0zM79.632 66.879c0 .736-.597 1.333-1.333 1.333h-61.5c-.736 0-1.333-.597-1.333-1.333v-38.66c0-.736.597-1.333 1.333-1.333h61.5c.736 0 1.333.597 1.333 1.333v38.66z" fill="#dae7dd"/>
</svg>
