<svg xmlns="http://www.w3.org/2000/svg" viewBox="0 0 455 455">
  <g fill-rule="evenodd" clip-rule="evenodd">
    <path d="M285.828 224.324c-6.357-4.187-14.031-7.709-23.039-10.631-9.021-2.905-19.071-5.569-30.126-7.963-8.82-2.069-15.177-3.64-19.005-4.716-3.776-1.063-7.538-2.533-11.244-4.428-3.692-1.881-6.58-4.104-8.649-6.667-2.034-2.529-3.041-5.499-3.058-9.021.017-5.622 2.975-10.408 9.161-14.543 6.151-4.069 14.284-6.156 24.469-6.156 11.008-.018 18.904 1.916 23.704 5.626 4.922 3.793 9.144 9.091 12.683 15.872 2.8 4.874 5.381 8.361 7.844 10.566 2.529 2.271 6.169 3.329 10.815 3.329 5.145.017 9.555-1.829 13.007-5.469 3.452-3.623 5.211-7.774 5.211-12.338 0-4.904-1.365-9.949-4.099-15.089-2.717-5.145-7.039-10.032-12.902-14.682-5.88-4.646-13.265-8.356-22.098-11.161-8.868-2.8-19.364-4.187-31.461-4.187-15.159 0-28.389 2.104-39.615 6.326-11.261 4.204-19.911 10.268-25.891 18.182-5.963 7.879-8.956 16.953-8.956 27.086 0 10.631 2.822 19.604 8.492 26.814 5.657 7.162 13.296 12.819 22.886 16.953 9.586 4.139 21.411 7.726 35.547 10.802 10.526 2.222 18.935 4.323 25.191 6.322 6.234 1.951 11.261 4.769 15.159 8.479 3.841 3.64 5.723 8.321 5.723 14.219 0 7.398-3.487 13.519-10.749 18.541-7.21 4.992-16.647 7.503-28.333 7.503-8.531 0-15.347-1.229-20.475-3.71-5.18-2.476-9.178-5.639-12.014-9.432-2.857-3.828-5.556-8.632-8.033-14.389-2.052-4.957-4.581-8.715-7.591-11.296-3.041-2.599-6.751-3.898-11.091-3.898-5.298 0-9.774 1.658-13.261 4.974-3.434 3.299-5.211 7.332-5.211 11.961 0 7.88 2.853 15.947 8.509 24.185 5.622 8.238 12.954 14.831 21.976 19.753 12.718 6.891 28.814 10.29 48.265 10.29 16.236 0 30.284-2.494 42.175-7.521 11.878-4.988 20.952-11.944 27.138-20.847 6.186-8.89 9.297-18.922 9.279-30.096 0-9.262-1.776-17.141-5.364-23.586-3.568-6.442-8.578-11.77-14.969-15.957z" fill="#dae7dd"/>
    <path d="M0 0v455h455V0H0zm296.677 385c-17.019 0-32.896-4.834-46.379-13.143-7.433 1.181-15.054 1.781-22.816 1.781-80.697 0-146.116-65.424-146.116-146.138 0-7.774.63-15.348 1.776-22.798C74.821 191.201 70 175.341 70 158.322 70 109.528 109.546 70 158.323 70c17.019 0 32.896 4.821 46.362 13.142 7.433-1.164 15.059-1.794 22.816-1.794 80.714 0 146.134 65.419 146.134 146.151 0 7.761-.613 15.365-1.794 22.798 8.339 13.484 13.16 29.361 13.16 46.384C385 345.454 345.454 385 296.677 385z" fill="#dae7dd"/>
  </g>
</svg>
